<svg xmlns="http://www.w3.org/2000/svg" width="225.242" height="72" viewBox="0 0 225.242 72"><defs><style>.a{fill:#364ec4;}.b{fill:#919edf;}.c{fill:#fbce20;}.d{fill:#fef643;}.e{fill:#354dc3;}.f{fill:#facd20;}.g{fill:#364dc4;}.h{fill:#a9b3e6;}.i{fill:#929fdf;}.j{fill:#364dc3;}</style></defs><g transform="translate(-455.6 -613.275)"><g transform="translate(591.596 618.267)"><g transform="translate(0 0)"><path class="a" d="M3341.186,718.7h1.6a4.9,4.9,0,0,0,.743.029,19.875,19.875,0,0,1,5.213.886,23.763,23.763,0,0,1,3.547,1.354,26.967,26.967,0,0,1,3.986,2.315,28.391,28.391,0,0,1,2.386,1.865c.327.279.644.573.956.871.251.241.511.469.748.72a26.616,26.616,0,0,1,1.87,2.14.529.529,0,0,1,.037.729q-1.072,1.769-2.144,3.541-1.094,1.811-2.187,3.617c-.743,1.236-1.5,2.467-2.239,3.7-.115.194-.115.213.052.379a16.517,16.517,0,0,1,2.334,2.831,18.038,18.038,0,0,1,2.187,4.564,17.017,17.017,0,0,1,.7,3.257,17.7,17.7,0,0,1,.123,2.514,20.621,20.621,0,0,1-.307,2.959,22.369,22.369,0,0,1-1.289,4.408,16.729,16.729,0,0,1-1.207,2.287,15.4,15.4,0,0,1-1.761,2.334c-.317.36-.643.72-.99,1.056a17.167,17.167,0,0,1-3.712,2.8,21.519,21.519,0,0,1-3.721,1.633,20.839,20.839,0,0,1-3.982.885c-.435.052-.866.067-1.3.081-.6.019-1.2.019-1.8.024a20.942,20.942,0,0,1-5.729-.81,29.433,29.433,0,0,1-4.251-1.548,35.488,35.488,0,0,1-4.469-2.434,46.031,46.031,0,0,1-3.827-2.727.338.338,0,0,1-.075-.516c.181-.293.369-.587.559-.876.761-1.169,1.51-2.348,2.268-3.527q1.747-2.72,3.493-5.449c.792-1.226,1.573-2.457,2.364-3.684.213-.331.426-.658.634-.989.128-.2.2-.223.4-.123q1.746.81,3.484,1.638c1.231.582,2.471,1.146,3.75,1.619a9.674,9.674,0,0,0,1.813.521,1.3,1.3,0,0,0,1.232-.464.352.352,0,0,0,.047-.492c-.175-.3-.34-.6-.516-.9a.42.42,0,0,0-.18-.17c-1.525-.758-3.1-1.425-4.621-2.178-1.109-.549-2.206-1.117-3.281-1.738-.965-.559-1.908-1.146-2.827-1.775a28.446,28.446,0,0,1-2.623-2.007c-.417-.365-.828-.724-1.211-1.122a13.205,13.205,0,0,1-2.074-2.67,9.81,9.81,0,0,1-.787-1.9,15.126,15.126,0,0,1-.577-2.453c-.075-.521-.123-1.046-.161-1.572-.033-.488-.033-.975-.023-1.463a11.87,11.87,0,0,1,1.042-4.739,14.476,14.476,0,0,1,3.2-4.559,15.72,15.72,0,0,1,4.242-2.864,19.6,19.6,0,0,1,4.971-1.515,17.356,17.356,0,0,1,2.756-.265c.223,0,.44-.009.663-.014A2.324,2.324,0,0,0,3341.186,718.7Z" transform="translate(-3322.583 -718.7)"/><path class="b" d="M3704.6,718.728c0-.01,0-.019,0-.029h.511A1.579,1.579,0,0,1,3704.6,718.728Z" transform="translate(-3686.513 -718.7)"/><path class="c" d="M3513.156,858.223q-.61,1-1.227,2-1.328,2.159-2.66,4.318c-.077.118-.118.137-.242.052-.507-.36-1.023-.72-1.539-1.065a18.61,18.61,0,0,0-2.855-1.506,29.216,29.216,0,0,0-4.5-1.633,6.529,6.529,0,0,0-2.344-.227,2.359,2.359,0,0,0-1.5.616,1.576,1.576,0,0,0-.4,1.723,4.28,4.28,0,0,0,.909,1.406,15.66,15.66,0,0,0,1.213,1.174,16.778,16.778,0,0,0,1.372,1.16c.772.6,1.558,1.169,2.373,1.714q.9.6,1.846,1.117c1.335.71,2.68,1.411,3.967,2.211a16.216,16.216,0,0,1,2.192,1.577c.152.133.3.279.465.4a11.691,11.691,0,0,1,2.31,3.073,10.494,10.494,0,0,1,1.137,5.146,15.149,15.149,0,0,1-3.641,9.559,16.6,16.6,0,0,1-4.394,3.812,12.79,12.79,0,0,1-4.587,1.591,18.044,18.044,0,0,1-8.868-1.037,26.2,26.2,0,0,1-4.743-2.24,1.486,1.486,0,0,1-.138-.095c-.047-.08,0-.142.039-.2.511-.838,1.032-1.671,1.547-2.509.6-.97,1.2-1.941,1.8-2.912.5-.81,1-1.624,1.51-2.434.094-.147.194-.18.345-.085q.987.6,2.022,1.132a17.58,17.58,0,0,0,1.723.776,11.711,11.711,0,0,0,2.557.706,5.513,5.513,0,0,0,3.271-.426,4.561,4.561,0,0,0,1.07-.72,7.307,7.307,0,0,0,1.979-2.9,3.759,3.759,0,0,0-.3-3.357,4.274,4.274,0,0,0-.72-.923c-.157-.152-.275-.331-.436-.478a13.863,13.863,0,0,0-3.513-2.713c-2.026-1.17-4.067-2.311-6.088-3.494a23.723,23.723,0,0,1-4.1-2.954c-.028-.028-.052-.057-.08-.085a8.255,8.255,0,0,1-2.315-4.825,10.562,10.562,0,0,1,.359-4.4,10.032,10.032,0,0,1,1.222-2.765,8.105,8.105,0,0,1,1.472-1.69,9.757,9.757,0,0,1,2.235-1.482,14.624,14.624,0,0,1,4.222-1.278,13.479,13.479,0,0,1,2.58-.123,21.588,21.588,0,0,1,5.431.885,23.161,23.161,0,0,1,4.095,1.671,17.463,17.463,0,0,1,2.931,1.884A10.619,10.619,0,0,1,3513.156,858.223Z" transform="translate(-3479.484 -846.562)"/><path class="d" d="M3501.44,842.035c-.365-.279-.724-.563-1.089-.843a21.045,21.045,0,0,0-3.987-2.367,21.9,21.9,0,0,0-4.976-1.614,20.752,20.752,0,0,0-2.477-.332c-.668-.052-1.335-.076-2.007-.062a13.911,13.911,0,0,0-3.386.535,12.913,12.913,0,0,0-2.382.9,9.514,9.514,0,0,0-2.75,2.031,8.128,8.128,0,0,0-1.226,1.752,11.2,11.2,0,0,0-1.174,3.835,9.241,9.241,0,0,0,.7,5.023,8.785,8.785,0,0,0,1.373,2.164,2.026,2.026,0,0,1,.166.237,9.886,9.886,0,0,1-1.846-2.15,9,9,0,0,1-1.368-5.615,11.749,11.749,0,0,1,.851-3.594,8.889,8.889,0,0,1,4.877-4.81,14.459,14.459,0,0,1,4.308-1.136,16.854,16.854,0,0,1,3.314.029,21.293,21.293,0,0,1,5.364,1.207,22.307,22.307,0,0,1,7.249,4.323c.146.128.288.256.43.388C3501.426,841.964,3501.483,841.983,3501.44,842.035Z" transform="translate(-3467.768 -830.374)"/><path class="d" d="M3483.583,1398.3a4.2,4.2,0,0,1,.682.61,4.346,4.346,0,0,1,1.061,2.135,3.864,3.864,0,0,1-.276,2.216,7.951,7.951,0,0,1-1.462,2.282,4.976,4.976,0,0,1-2.675,1.586,6.637,6.637,0,0,1-2.8-.052,14.393,14.393,0,0,1-3.215-1.146,27.985,27.985,0,0,1-2.509-1.373c-.113-.071-.175-.066-.256.057q-1.739,2.827-3.494,5.648-.732,1.179-1.458,2.358c-.341-.18-.653-.407-.98-.611-.1-.062-.037-.109-.009-.161l.866-1.406q2.075-3.359,4.152-6.719c.081-.128.127-.132.252-.057a22.338,22.338,0,0,0,4.488,2.183,9.53,9.53,0,0,0,2.5.506,5.078,5.078,0,0,0,4.37-1.861,7.858,7.858,0,0,0,1.278-2.041,3.96,3.96,0,0,0-.445-4.062C3483.626,1398.366,3483.607,1398.333,3483.583,1398.3Z" transform="translate(-3459.351 -1366.124)"/><path class="d" d="M3726.31,1118.072a2.084,2.084,0,0,1-.445-.332,27.811,27.811,0,0,0-3.684-2.414c-1.211-.682-2.471-1.279-3.65-2.017a32.216,32.216,0,0,1-3.2-2.273c-.379-.307-.729-.644-1.094-.966a.4.4,0,0,1-.139-.171c.9.748,1.861,1.43,2.832,2.093,1.156.781,2.4,1.392,3.618,2.055a28.5,28.5,0,0,1,4.791,3.13A10.428,10.428,0,0,1,3726.31,1118.072Z" transform="translate(-3695.562 -1091.378)"/></g></g><g transform="translate(618.452 614.717)"><g transform="translate(0 0)"><path class="e" d="M3950.222,647.636c-.218.664-.435,1.323-.649,1.982q-4.58,13.963-9.166,27.921t-9.176,27.936q-1.42,4.325-2.836,8.654c-.056.175-.118.18-.27.133q-7.775-2.4-15.553-4.79-2.706-.832-5.412-1.66c-.142-.043-.18-.09-.147-.242.218-.981.417-1.968.63-2.949.032-.142,0-.185-.133-.213q-3.267-.718-6.53-1.442-4.893-1.081-9.781-2.167c-.787-.176-1.572-.356-2.359-.522-.137-.029-.143-.076-.109-.194q1.207-4.552,2.415-9.1.817-3.087,1.638-6.169c.039-.133,0-.161-.123-.18-1.572-.213-3.149-.436-4.72-.65-.165-.024-.1-.1-.085-.185q.96-3.891,1.928-7.786.709-2.86,1.41-5.719a.217.217,0,0,1,.232-.2c.837-.043,1.676-.1,2.518-.147.995-.057,1.984-.119,2.979-.171.118,0,.123-.076.137-.152q.461-1.963.922-3.931,1.429-6.053,2.851-12.1c.336-1.428.672-2.85,1-4.277.032-.138.08-.18.222-.166,1.487.185,2.973.361,4.461.536,1.581.19,3.167.37,4.748.56,1.871.223,3.741.451,5.611.669l5.9.7c.526.062,1.047.123,1.573.194.142.019.2-.019.25-.161q1.272-3.884,2.547-7.768c.048-.137.095-.161.237-.137q4.225.725,8.455,1.437,4.482.761,8.958,1.513,2.628.441,5.251.892A.926.926,0,0,0,3950.222,647.636Z" transform="translate(-3887.831 -643.73)"/><path class="f" d="M4102.007,845.318q-.6,1.9-1.193,3.8-4.148,13.166-8.3,26.332-3.458,10.974-6.917,21.947c-.033.1-.056.157-.189.114q-4.2-1.338-8.413-2.671a.612.612,0,0,1-.062-.028,3.294,3.294,0,0,1,.19-.74q.787-2.669,1.571-5.338.888-3,1.771-5.992.733-2.47,1.458-4.944c.128-.436.261-.873.388-1.309.062-.209.047-.223-.161-.251-.43-.067-.862-.143-1.292-.214a.289.289,0,0,1-.17-.071c.085-.3.165-.6.265-.9.048-.138.038-.194-.128-.218-1.008-.157-2.017-.323-3.025-.489-1.349-.223-2.7-.441-4.048-.664-.71-.119-1.42-.233-2.13-.356-.133-.023-.171.019-.2.147q-.9,3.644-1.794,7.278-1.073,4.327-2.135,8.649c-.034.128-.072.147-.19.114q-3.743-.939-7.49-1.864c-.52-.128-1.046-.261-1.566-.394-.057-.067-.029-.142-.01-.214.549-2.092,1.08-4.189,1.624-6.282.27-1.049.54-2.092.809-3.141.374-1.461.753-2.923,1.127-4.379.014-.047.023-.1.038-.147.043-.128,0-.185-.137-.209-.4-.062-.8-.133-1.212-.2a.44.44,0,0,1-.256-.076c.081-.323.156-.65.246-.973.033-.114-.01-.137-.1-.152q-1.8-.291-3.6-.588c-.057-.01-.108-.024-.166-.038-.052-.071-.024-.143,0-.214.336-1.21.662-2.424,1-3.639.066-.247.085-.256.341-.256h5.232c.293,0,.293,0,.365-.285.643-2.524,1.3-5.048,1.951-7.572q.646-2.519,1.3-5.043.8-3.1,1.6-6.2c.062-.233.1-.261.351-.228l2.476.37q2.833.427,5.663.849c.152.024.3.052.454.071a.245.245,0,0,1,.166.076c-.142.583-.275,1.172-.421,1.755q-1.812,7.337-3.627,14.669c-.033.128-.019.171.128.171.535,0,1.065-.033,1.6,0,.052.071.014.142,0,.213-.071.3-.15.607-.226.911-.048.19-.038.195.166.2.393.019.781-.033,1.173-.033h8.144c.3,0,.3,0,.4-.3q1.114-3.238,2.23-6.471c.4-1.167.8-2.334,1.2-3.5q1.151-3.331,2.3-6.666c.611-1.779,1.231-3.558,1.838-5.342.057-.171.123-.341.184-.512.072-.209.124-.242.341-.209.649.109,1.3.228,1.946.341q2.541.449,5.085.9c.615.109,1.23.223,1.845.328C4101.883,845.261,4101.955,845.261,4102.007,845.318Z" transform="translate(-4048.584 -834.199)"/><path class="d" d="M4470.135,818.633c-.45-.043-.89-.147-1.334-.218-.7-.118-1.388-.241-2.084-.364l-1.979-.355c-.691-.123-1.386-.241-2.083-.365-.541-.095-1.075-.189-1.614-.294-.141-.028-.213,0-.264.147-.475,1.392-.957,2.784-1.435,4.176l-1.364,3.949q-.681,1.974-1.364,3.949t-1.368,3.968q-.68,1.974-1.364,3.948c-.3.871-.606,1.742-.9,2.618a.25.25,0,0,1-.288.208q-4.178-.007-8.347,0c-.385,0-.773.033-1.156.028-.219,0-.219,0-.167-.2.1-.388.194-.777.29-1.169.541-.033,1.08-.014,1.615-.019q3.16-.014,6.321-.009a.257.257,0,0,0,.3-.208q3.885-11.292,7.779-22.579c.061-.17.126-.2.3-.17,1.7.308,3.4.6,5.108.9s3.405.6,5.109.9c.16.028.321.062.487.085.1.014.127.038.091.137C4470.325,818.017,4470.23,818.325,4470.135,818.633Z" transform="translate(-4416.712 -807.517)"/><path class="d" d="M4043.493,897.679l-2.775-.412c-.946-.142-1.894-.294-2.84-.436-.824-.128-1.648-.251-2.477-.374-.26-.038-.526-.071-.785-.109-.1-.014-.137.019-.167.128q-.759,2.976-1.529,5.942c-.351,1.359-.7,2.713-1.051,4.072q-.767,2.976-1.538,5.956c-.257.99-.522,1.979-.768,2.969a.253.253,0,0,1-.3.232c-1.795-.009-3.589,0-5.389-.009-.142,0-.188.047-.227.18-.34,1.264-.692,2.528-1.042,3.792a.261.261,0,0,0-.01.085c-.548-.09-1.1-.18-1.648-.261-.147-.024-.066-.109-.052-.156.251-.923.506-1.846.758-2.77.189-.682.379-1.364.559-2.05.034-.128.08-.175.222-.175,1.809,0,3.613,0,5.423,0,.16,0,.218-.048.26-.2q1.9-7.357,3.8-14.715c.359-1.4.724-2.8,1.079-4.2.039-.147.085-.2.247-.175q1.641.255,3.281.5,1.868.284,3.736.559,1.541.235,3.078.464a.946.946,0,0,1,.344.17c.052.029.047.071.039.118C4043.65,897.087,4043.569,897.381,4043.493,897.679Z" transform="translate(-4014.566 -883.059)"/><path class="d" d="M4457.219,1524.3c.449.076.9.147,1.35.222.089.014.175.033.265.042.113.01.118.062.089.161-.246.819-.487,1.638-.729,2.453-.435,1.472-.865,2.949-1.3,4.422-.313,1.051-.63,2.1-.938,3.153-.407,1.373-.8,2.741-1.211,4.115q-.526,1.775-1.056,3.541a4.5,4.5,0,0,1-.227.706l-1.572-.483c-.118-.033-.066-.109-.047-.175.237-.8.469-1.6.705-2.4q2-6.775,4.01-13.555C4456.778,1525.772,4457,1525.039,4457.219,1524.3Z" transform="translate(-4425.11 -1482.497)"/><path class="d" d="M4060.325,1453.7c.412.038.81.132,1.216.19.119.019.232.033.351.052.09.014.133.047.1.161q-.51,1.96-1.013,3.92c-.232.895-.463,1.795-.7,2.689q-.844,3.281-1.7,6.557c-.09.351-.17.7-.26,1.051-.521-.127-1.047-.255-1.567-.378-.124-.028-.109-.095-.085-.185q.519-1.981,1.027-3.968,1.285-4.971,2.571-9.943C4060.292,1453.795,4060.311,1453.747,4060.325,1453.7Z" transform="translate(-4048.67 -1415.274)"/></g></g><g transform="translate(560.492 618.513)"><g transform="translate(0 0)"><path class="g" d="M2683.224,723.9h.2a1.22,1.22,0,0,0,.369.014c.459,0,.919,0,1.373,0,2.107-.01,4.213.014,6.321.023,1.254,0,2.509-.009,3.764.014s2.5,0,3.749.014c.142,0,.284.024.427.024.208,0,.251.043.3.251.067.313.128.625.19.937q.319,1.655.648,3.309.491,2.521.99,5.047.476,2.436.951,4.867.49,2.521.99,5.047.475,2.436.952,4.867.5,2.535.994,5.066.476,2.443.956,4.881.49,2.514.985,5.033c.317,1.614.635,3.234.947,4.848.175.9.355,1.794.525,2.689.052.256.056.516.085.776.014.119-.038.175-.157.194-.554.09-1.112.156-1.671.232l-2.414.327c-.995.133-1.994.265-2.988.4-.782.1-1.562.213-2.344.317-1.07.147-2.135.289-3.205.431-.866.114-1.732.232-2.6.35s-1.709.232-2.566.341c-.194.023-.4.019-.592.042-.152.014-.218-.057-.241-.194-.081-.445-.161-.895-.241-1.34q-.313-1.761-.62-3.523c-.029-.17-.08-.213-.28-.241-.558-.081-1.112-.161-1.667-.237-.771-.109-1.539-.223-2.31-.327-.213-.028-.261,0-.327.2-.384,1.117-.772,2.235-1.156,3.352-.184.535-.365,1.075-.558,1.61-.09.246-.156.284-.407.2-.913-.289-1.832-.573-2.746-.857q-2.641-.824-5.284-1.652c-1.164-.365-2.33-.724-3.494-1.094-.8-.251-1.591-.5-2.392-.743-.052-.014-.108-.033-.161-.052-.26-.09-.293-.166-.142-.393a2.145,2.145,0,0,0,.251-.592c.232-.767.511-1.52.743-2.287.057-.189.052-.194-.137-.175s-.374.042-.559.062-.26-.043-.289-.227c-.132-.9-.25-1.809-.374-2.718-.147-1.042-.289-2.078-.431-3.12-.189-1.359-.369-2.722-.563-4.081-.1-.706-.165-1.411-.222-2.121v-.1a.3.3,0,0,1,.232-.152c.781-.2,1.563-.4,2.344-.606,1.5-.383,2.988-.776,4.489-1.15a.428.428,0,0,0,.331-.317q.938-2.862,1.875-5.734.746-2.265,1.487-4.531c.393-1.2.79-2.405,1.179-3.612.4-1.226.8-2.448,1.2-3.674.393-1.207.791-2.419,1.188-3.626s.781-2.386,1.169-3.579c.266-.814.55-1.624.8-2.448A.389.389,0,0,1,2683.224,723.9Z" transform="translate(-2666.8 -723.9)"/><path class="h" d="M3019.77,723.9a.065.065,0,0,0,0,.028c-.592,0-1.183.024-1.775-.028Z" transform="translate(-3001.372 -723.9)"/><path class="c" d="M2799.026,864.418c.067-.218.124-.436.2-.649.043-.118,0-.142-.1-.152-.558-.047-1.118-.1-1.675-.147-.181-.014-.36-.038-.541-.057a.389.389,0,0,1-.1-.279c-.043-.578-.1-1.151-.151-1.728s-.095-1.174-.157-1.761c-.014-.118-.009-.237-.023-.355s.076-.18.19-.2c.26-.052.524-.085.79-.123,1.572-.237,3.139-.478,4.711-.715a.393.393,0,0,0,.36-.3c.472-1.411.961-2.817,1.439-4.223l1.307-3.821c.421-1.226.838-2.448,1.259-3.674.43-1.264.866-2.523,1.3-3.788s.862-2.514,1.292-3.773.867-2.523,1.3-3.788c.417-1.222.838-2.438,1.255-3.66.075-.227.161-.45.236-.677.094-.279.108-.293.411-.293.966,0,1.932,0,2.9,0,.923,0,1.851.052,2.774.033a.3.3,0,0,1,.251.076c.231,1.155.459,2.315.691,3.471q.738,3.75,1.478,7.495.724,3.679,1.454,7.362t1.453,7.343q.738,3.757,1.482,7.509.5,2.535,1.008,5.071c.024.128.01.175-.132.185q-1.5.106-2.987.222c-1.156.085-2.311.175-3.467.26-.369.028-.733.052-1.1.076-.119-.042-.123-.156-.147-.251-.161-.691-.317-1.383-.473-2.069-.047-.213-.057-.218-.271-.26-.151-.029-.326.009-.439-.138-.057-.232-.113-.459-.167-.691a.14.14,0,0,0-.146-.128q-2.949-.319-5.885-.653c-1.572-.175-3.144-.355-4.72-.53-.275-.033-.275-.033-.361.227-.34,1.023-.682,2.041-1.017,3.063-.037.118-.081.151-.213.118q-2.343-.611-4.692-1.2a.3.3,0,0,1-.08-.033c-.08-.081-.042-.171-.014-.256.18-.573.346-1.15.525-1.723.067-.218.047-.237-.174-.265s-.432-.019-.64-.061C2799.122,864.489,2799.06,864.484,2799.026,864.418Z" transform="translate(-2790.329 -825.22)"/><path class="d" d="M2801.036,814.011c-.658,0-1.321.019-1.979,0-1.335-.052-2.67-.009-4.006-.028a.231.231,0,0,0-.265.189q-.916,2.705-1.841,5.4-.853,2.5-1.709,4.995-.866,2.529-1.733,5.061-.853,2.5-1.709,5-.844,2.471-1.695,4.948-.377,1.094-.753,2.192a.233.233,0,0,1-.213.18c-1.032.152-2.064.313-3.092.469-.843.128-1.681.261-2.524.383-.156.024-.18.085-.165.232.09.895.16,1.794.241,2.689.038.445.071.89.109,1.34-.208-.014-.417-.042-.63-.042a.2.2,0,0,1-.227-.213c-.023-.175-.038-.35-.052-.526-.109-1.231-.213-2.467-.322-3.7-.014-.171-.024-.341-.047-.507-.014-.1.009-.132.114-.151.719-.1,1.434-.218,2.154-.327,1.188-.18,2.377-.365,3.57-.54.118-.019.128-.09.156-.166q.895-2.606,1.785-5.213,3.842-11.221,7.679-22.437a.174.174,0,0,1,.2-.142q3.324.021,6.648.033c.109,0,.146.038.161.137Z" transform="translate(-2773.135 -808.869)"/><path class="d" d="M2837.9,1551.8c.323.024.639.053.961.071.156.01.185.076.142.223-.213.682-.417,1.364-.625,2.041a.208.208,0,0,0-.009.047c-.342-.085-.682-.17-1.024-.251-.094-.024-.075-.076-.057-.142Q2837.587,1552.8,2837.9,1551.8Z" transform="translate(-2829.202 -1512.602)"/><path class="d" d="M3225.2,1598.7c.208.024.417.047.625.066.114.01.123.1.143.185q.27,1.193.54,2.386a.429.429,0,0,0,.028.081c-.2.014-.407.029-.611.048-.066,0-.1-.01-.123-.081C3225.6,1600.49,3225.4,1599.595,3225.2,1598.7Z" transform="translate(-3198.762 -1557.282)"/><path class="a" d="M3089.773,1190.923c-.312.023-.625.038-.933.076a.385.385,0,0,1-.3-.128c-.067-.052,0-.118.023-.165q.5-1.193,1.008-2.377,1.364-3.209,2.732-6.425c.024-.057.052-.109.1-.2.071.417.137.8.2,1.174.057.308.114.61.171.918.085.047.094.137.109.218q.553,3.167,1.1,6.34c.038.213-.023.308-.236.322l-1.354.113c-.639.052-1.278.1-1.917.161-.166.014-.327.019-.493.038A.227.227,0,0,1,3089.773,1190.923Z" transform="translate(-3068.548 -1160.025)"/><path class="d" d="M3108.982,1209.785c.862-.071,1.719-.147,2.581-.218.483-.038.961-.08,1.444-.118.109-.009.156-.033.133-.161q-.575-3.26-1.141-6.52c0-.038,0-.081-.01-.119a8.275,8.275,0,0,0,.412-.914.616.616,0,0,1,.142-.237c.043.255.085.488.123.72q.363,2.095.73,4.19.326,1.875.658,3.75c.028.161-.076.171-.175.185-.307.029-.62.052-.932.075-.521.043-1.038.09-1.558.128-.474.038-.947.071-1.426.109-.327.028-.653.052-.98.085-.241.024-.364-.119-.274-.336S3108.892,1209.994,3108.982,1209.785Z" transform="translate(-3087.757 -1178.888)"/></g></g><g transform="translate(536.771 618.3)"><g transform="translate(0 0)"><path class="i" d="M2380.428,719.433a.043.043,0,0,1,0-.033h2.25c0,.009,0,.019,0,.028a.269.269,0,0,1-.222.062h-1.814A.3.3,0,0,1,2380.428,719.433Z" transform="translate(-2370.307 -719.4)"/><path class="g" d="M2176.858,720c.753,0,1.506,0,2.254,0q3.616.028,7.225.052c1.331.009,2.656.019,3.987.033.914.009,1.828.019,2.741.019.124,0,.167.047.2.156q1.065,3.473,2.14,6.95l2.869,9.3q1.364,4.424,2.727,8.849c.261.848.521,1.69.781,2.538a.222.222,0,0,0,.18.175q3.487.959,6.974,1.927c.289.08.237.014.195.3-.365,2.367-.739,4.735-1.1,7.1q-.368,2.379-.729,4.763c-.023.147-.066.2-.227.166-.251-.052-.507-.071-.757-.109-.085-.014-.114,0-.085.095.3.971.6,1.941.9,2.912a2.308,2.308,0,0,0,.242.426c-.379.114-.744.223-1.113.332q-3.359.98-6.713,1.965-3.267.959-6.53,1.922c-.25.076-.25.071-.331-.171q-.832-2.564-1.666-5.132c-.034-.1-.066-.137-.19-.123-1.406.18-2.817.36-4.224.526a.284.284,0,0,0-.293.279c-.3,1.61-.62,3.22-.932,4.829-.043.227-.043.223-.265.189q-2.317-.348-4.631-.7-2.358-.355-4.711-.72l-4.678-.71c-1.42-.218-2.84-.436-4.256-.644-.124-.019-.109-.08-.09-.166q.518-2.422,1.032-4.843.9-4.211,1.8-8.423.944-4.417,1.894-8.839.966-4.538,1.931-9.071.717-3.352,1.44-6.709.93-4.346,1.851-8.688C2176.744,720.5,2176.8,720.251,2176.858,720Z" transform="translate(-2166.737 -719.971)"/><path class="c" d="M2350.078,861.278c-.085-.27-.18-.54-.256-.81a.159.159,0,0,0-.2-.137c-.757.076-1.515.142-2.272.218q-1.755.163-3.509.336l-3.764.355c-.383.038-.767.08-1.151.109-.127.01-.185.047-.213.18-.26,1.084-.535,2.168-.8,3.257-.029.118-.066.151-.194.137q-2.358-.22-4.716-.431c-.824-.076-1.647-.161-2.471-.241a.523.523,0,0,1,.024-.317c.436-1.984.857-3.977,1.283-5.966l.823-3.83c.446-2.055.882-4.11,1.326-6.164q.86-3.984,1.714-7.964c.27-1.25.535-2.5.8-3.75.308-1.425.616-2.855.923-4.28q.619-2.862,1.236-5.729c.09-.426.09-.436.53-.421,1.193.043,2.386,0,3.58.043.7.019,1.4.009,2.092.023a.294.294,0,0,1,.209.047c.236.715.473,1.435.7,2.15q1.755,5.419,3.5,10.833,2.278,7.052,4.559,14.109a.206.206,0,0,0,.194.171c.184.024.369.066.549.1a1.6,1.6,0,0,1,.194.507.317.317,0,0,0,.284.246c1.468.251,2.94.492,4.408.748a.475.475,0,0,1,.274.076c-.085.857-.175,1.714-.26,2.571-.052.5-.1.994-.156,1.491-.028.275-.047.279-.321.3-.928.066-1.856.137-2.784.2-.146.009-.119.076-.09.166.242.838.483,1.681.725,2.519.071.246.071.246-.171.3q-2.549.6-5.094,1.212a1.26,1.26,0,0,1-.133.024.291.291,0,0,1-.1-.189c-.209-.663-.422-1.33-.625-2-.066-.222-.1-.237-.331-.2A.839.839,0,0,1,2350.078,861.278Z" transform="translate(-2322.761 -820.788)"/><path class="d" d="M2324.165,809.037c-.592,0-1.184.019-1.771,0-1.08-.047-2.158,0-3.234-.038-.368-.009-.734-.014-1.1-.024-.1,0-.17,0-.2.142-.265,1.288-.544,2.571-.819,3.859-.346,1.6-.7,3.186-1.042,4.777-.369,1.709-.729,3.423-1.094,5.132-.294,1.378-.592,2.76-.89,4.138-.189.88-.388,1.766-.578,2.647-.218,1.008-.43,2.017-.648,3.03l-.923,4.318c-.289,1.34-.587,2.68-.876,4.02s-.573,2.671-.857,4.006c-.161.748-.322,1.5-.483,2.249a.243.243,0,0,1-.028.061c-.313-.024-.621-.057-.933-.076-.128-.01-.147-.057-.119-.17.133-.6.265-1.2.393-1.794q.575-2.67,1.145-5.341,1.052-4.9,2.112-9.8,1.164-5.4,2.334-10.814c.511-2.367,1.014-4.739,1.525-7.107q.433-2,.862-4.01c.024-.123.076-.152.189-.147q3.26.043,6.525.076c.184,0,.289.052.326.242A6.282,6.282,0,0,0,2324.165,809.037Z" transform="translate(-2301.843 -803.89)"/><path class="d" d="M2844.355,1407.676c-.407-.029-.8-.128-1.2-.189-.709-.114-1.421-.237-2.131-.355-.487-.081-.975-.161-1.463-.251-.071-.014-.152-.028-.17-.118a6.553,6.553,0,0,1-.195-.663c.531.085,1.061.17,1.591.26,1.16.194,2.324.4,3.485.587.127.019.175.052.147.189C2844.384,1407.317,2844.375,1407.5,2844.355,1407.676Z" transform="translate(-2807.361 -1373.587)"/><path class="d" d="M2743.7,1573.227c.133-.019.265-.042.4-.061.161-.029.237.033.284.194.223.753.464,1.5.7,2.249l-.346.085c-.256.062-.256.057-.327-.18Q2744.055,1574.37,2743.7,1573.227Z" transform="translate(-2716.383 -1532.737)"/><path class="a" d="M2527.359,1187.02c-.3-.033-.6-.071-.894-.095-.142-.009-.161-.052-.137-.189q.653-3.38,1.3-6.77c.114-.6.228-1.193.346-1.79,0-.029,0-.057.048-.076.246.592.488,1.179.733,1.771.1.076.124.2.171.308q.752,1.875,1.515,3.74c.416,1.032.843,2.06,1.25,3.1.123.312.01.473-.326.436-.777-.08-1.558-.151-2.334-.232-.5-.052-1-.1-1.506-.146C2527.459,1187.067,2527.4,1187.072,2527.359,1187.02Z" transform="translate(-2509.294 -1156.382)"/><path class="d" d="M2545.675,1205.12l2,.184c.691.067,1.378.138,2.064.2.208.019.317-.123.242-.312q-1.436-3.544-2.87-7.083c-.019-.047-.033-.095-.048-.142a3.587,3.587,0,0,1,.2-.871c.123.307.251.615.374.918.483,1.188.966,2.381,1.444,3.57.422,1.041.844,2.088,1.265,3.13.184.454.374.909.558,1.363.08.194-.033.332-.246.313-.511-.052-1.023-.095-1.534-.146-.621-.062-1.246-.138-1.866-.2-.393-.038-.786-.071-1.179-.109a3.126,3.126,0,0,0-.421-.038c-.1,0-.129-.038-.1-.142C2545.6,1205.556,2545.638,1205.338,2545.675,1205.12Z" transform="translate(-2527.61 -1174.483)"/></g></g><g transform="translate(503.863 617.078)"><g transform="translate(0 0)"><path class="j" d="M1475.741,693.619q3.622.1,7.24.209c1.51.043,3.02.09,4.531.133,1.548.047,3.1.09,4.649.133.123,0,.162.052.194.157.317,1.048.644,2.091.961,3.144.038.133.1.161.222.157,1.994-.095,3.982-.185,5.975-.275,1.439-.066,2.883-.123,4.322-.19l4.887-.227c.293-.014.3-.01.374.28q2.173,8.487,4.351,16.975,2.038,7.947,4.072,15.888,1.25,4.866,2.5,9.732c.037.147-.019.18-.137.223q-8.253,3.016-16.5,6.038-3.572,1.309-7.14,2.608a.21.21,0,0,0-.161.232c-.015,1.091-.043,2.186-.062,3.277,0,.114-.038.152-.147.18l-9.279,2.277q-6.712,1.651-13.428,3.3c-.2.047-.2.047-.194-.157q.107-3.358.218-6.72c.057-1.669.113-3.344.166-5.013q.106-3.1.208-6.208c.057-1.655.109-3.31.166-4.966q.107-3.13.208-6.261c.057-1.66.109-3.32.166-4.98q.121-3.614.241-7.233c.057-1.665.114-3.334.166-5q.107-3.123.208-6.242c.057-1.655.109-3.31.166-4.966.076-2.205.146-4.316.222-6.522" transform="translate(-1472.975 -693.6)"/><path class="f" d="M1625.084,846.948q.739,2.285,1.473,4.57,2.188,6.811,4.37,13.623a.276.276,0,0,0,.071.123c.014-.579.024-1.158.038-1.741.071.01.085.071.1.123.237.75.488,1.49.72,2.244.01.033.01.066.019.09a.934.934,0,0,1,0-.3,1.669,1.669,0,0,0,.019-.223c-.024-1.177.029-2.354.042-3.53.01-.778,0-1.561.034-2.339.028-.645-.005-1.286.028-1.926.038-.745,0-1.49.038-2.235.033-.636,0-1.277.028-1.912.038-.75.009-1.5.038-2.254.014-.356.019-.716.029-1.072,0-.2.043-.247.251-.271s.431-.033.644-.043c.843-.038,1.686-.1,2.528-.152q1.392-.078,2.784-.171c.81-.052,1.619-.095,2.429-.157a.252.252,0,0,1,.208.048c.147.607.3,1.21.445,1.817l2.812,11.8q1.356,5.68,2.7,11.355,1.165,4.9,2.339,9.794c.042.171,0,.213-.156.261q-3.665,1.153-7.329,2.316a.36.36,0,0,0-.066.019,1.16,1.16,0,0,1-.147-.413q-.887-3.168-1.771-6.33-1.037-3.7-2.069-7.4a.74.74,0,0,1-.014-.09c-.057.341-.137.655-.2.973-.014.071-.01.152-.1.185-.189-.669-.383-1.343-.577-2.012-.014-.052-.033-.109-.062-.195-.109.522-.213,1.011-.313,1.5q-.781,3.758-1.558,7.521c-.175.85-.35,1.7-.526,2.553a.322.322,0,0,1-.033.095c-.109-.01-.123-.109-.161-.175-.43-.769-.871-1.533-1.307-2.3q-1.278-2.249-2.557-4.494-1.15-2.014-2.3-4.034c-.251-.446-.511-.887-.753-1.333-.057.152,0,.327-.085.484-.289-.493-.573-.987-.881-1.518-.014.175-.024.313-.028.451q-.114,2.755-.218,5.509-.121,2.911-.237,5.818-.121,2.925-.241,5.851c-.081,1.931-.156,3.867-.237,5.8-.028.7-.066,1.4-.09,2.1,0,.114-.042.152-.147.171-1.184.2-2.367.418-3.551.626l-4.74.84c-.563.1-1.126.19-1.69.29a.244.244,0,0,1-.052-.223,12.451,12.451,0,0,0,.052-1.262c.024-.489.033-.977.052-1.466.029-.816.038-1.637.09-2.453.024-.346.024-.693.028-1.039.014-.522.029-1.049.052-1.57.028-.783.033-1.571.09-2.354.023-.346.023-.693.028-1.039.014-.517.033-1.034.052-1.552.029-.783.038-1.571.09-2.354.024-.351.024-.707.029-1.058.014-.513.033-1.025.052-1.533.033-.778.033-1.556.09-2.335.024-.351.024-.707.033-1.058.01-.522.029-1.049.052-1.571.028-.778.033-1.556.09-2.335.024-.342.019-.683.028-1.025.014-.5.033-1,.052-1.5.029-.807.037-1.613.09-2.42.024-.351.024-.707.029-1.058.009-.522.028-1.049.052-1.571.028-.778.033-1.556.09-2.335.024-.346.024-.693.028-1.039.015-.517.029-1.034.052-1.552.029-.783.038-1.571.09-2.354.024-.341.024-.683.033-1.025.009-.522.028-1.049.052-1.571.029-.778.033-1.556.09-2.334.024-.346.024-.693.028-1.039.014-.517.038-1.034.048-1.552.014-.693.057-1.385.066-2.078,0-.2.09-.285.293-.308.184-.019.374-.033.559-.038.8-.024,1.6-.076,2.4-.114.9-.043,1.8-.085,2.7-.137.724-.043,1.449-.066,2.173-.119A.3.3,0,0,1,1625.084,846.948Z" transform="translate(-1608.356 -839.642)"/><path class="d" d="M1607.914,829.026c-.706.048-1.411.081-2.116.109-.421.019-.847.048-1.269.067-.691.033-1.378.076-2.069.1-.431.019-.857.047-1.288.066-.411.019-.824.043-1.235.067-.2.01-.256.071-.26.27-.009.564-.009,1.124-.038,1.684-.033.659-.047,1.314-.071,1.974s-.043,1.329-.067,1.988-.042,1.314-.066,1.974-.043,1.3-.067,1.955-.043,1.314-.066,1.974-.043,1.329-.067,1.988-.043,1.314-.066,1.974-.043,1.328-.066,1.988-.043,1.315-.066,1.974-.043,1.329-.066,1.988-.043,1.314-.066,1.974-.043,1.328-.066,1.988-.043,1.314-.066,1.974-.043,1.328-.066,1.988-.043,1.314-.066,1.974-.042,1.3-.066,1.955-.043,1.314-.067,1.974-.042,1.329-.066,1.988-.043,1.314-.066,1.974-.043,1.328-.067,1.988-.043,1.314-.067,1.974-.042,1.328-.066,1.988-.043,1.3-.067,1.955c-.024.669-.057,1.338-.066,2.007,0,.152-.038.3-.029.455-.288.057-.578.109-.867.166-.113.024-.085-.061-.08-.118.009-.323.024-.65.033-.973q.114-3.181.222-6.368c.052-1.481.1-2.956.147-4.437q.114-3.224.227-6.453c.052-1.466.1-2.937.147-4.4.062-1.822.128-3.639.194-5.461.052-1.49.1-2.98.151-4.47q.1-2.84.2-5.684.135-3.844.266-7.682.078-2.32.156-4.64c.009-.247.033-.266.275-.28q3.146-.156,6.3-.318c.724-.038,1.454-.076,2.178-.119.08,0,.123.015.146.1A4.288,4.288,0,0,0,1607.914,829.026Z" transform="translate(-1591.186 -821.718)"/><path class="d" d="M1962.043,881.7c-.672.042-1.34.094-2.012.132-.208.014-.417.019-.625.033-.672.047-1.344.066-2.017.109-.54.038-1.084.071-1.624.1-.625.033-1.25.085-1.875.132a3.968,3.968,0,0,0-.525.028c-.1.024-.114.057-.118.147-.01.653-.029,1.3-.033,1.955,0,1-.028,2.007-.048,3.011-.014.691.014,1.387-.028,2.074s.009,1.387-.033,2.074.01,1.4-.033,2.092.009,1.373-.033,2.06,0,1.4-.033,2.093c-.01.208-.023.412-.052.625-.128-.388-.256-.781-.383-1.17-.156-.483-.313-.966-.469-1.453.014-1.022.033-2.045.047-3.068q.044-2.876.09-5.757c.029-1.813.062-3.622.09-5.435,0-.114.037-.142.141-.147.843-.047,1.691-.1,2.533-.156l3.655-.227c1.009-.062,2.017-.118,3.025-.185.123-.01.171.028.194.142C1961.919,881.188,1961.986,881.444,1962.043,881.7Z" transform="translate(-1929.416 -871.909)"/><path class="d" d="M2087.2,1386.011l.242-1.108c.014-.052.028-.109.052-.2.128.445.241.852.354,1.26.318,1.136.639,2.272.957,3.413.332,1.174.658,2.353.99,3.527s.658,2.339.984,3.508c.236.843.473,1.686.705,2.533.009.038.009.081.015.119a4.383,4.383,0,0,0-.45.152c-.128.052-.161.009-.194-.109q-.405-1.456-.814-2.912-1.407-5.028-2.817-10.061A.5.5,0,0,1,2087.2,1386.011Z" transform="translate(-2058.119 -1351.906)"/><path class="d" d="M1871.15,1350.092c-.014-.194.038-.384.038-.592a1.331,1.331,0,0,1,.246.379c.6,1.037,1.193,2.083,1.785,3.125.44.776.88,1.557,1.321,2.334.431.758.867,1.51,1.3,2.268s.876,1.548,1.316,2.315c.384.668.767,1.33,1.15,2a3.617,3.617,0,0,1-.109.554c-.317-.558-.62-1.089-.923-1.619q-3.033-5.313-6.061-10.629A.568.568,0,0,1,1871.15,1350.092Z" transform="translate(-1852.296 -1318.378)"/></g></g><g transform="translate(455.6 613.275)"><g transform="translate(0 0)"><path class="j" d="M491.048,683.11h-1.4a.146.146,0,0,0-.1-.019c-.639.009-1.278-.024-1.918-.057-.374-.019-.743-.081-1.113-.133-.847-.123-1.69-.275-2.523-.479q-1.52-.377-3.007-.882a29.469,29.469,0,0,1-3.584-1.527c-.63-.313-1.245-.654-1.856-1.01q-1.633-.96-3.158-2.077c-.7-.512-1.378-1.043-2.031-1.6-.971-.835-1.922-1.688-2.8-2.613-.7-.73-1.382-1.475-2.031-2.248-.843-1.005-1.624-2.063-2.381-3.134-.436-.617-.824-1.266-1.222-1.911-.331-.531-.62-1.086-.961-1.608a5.923,5.923,0,0,1-.289-.541c-.289-.569-.578-1.133-.852-1.712-.189-.4-.379-.8-.559-1.2-.237-.536-.483-1.067-.7-1.612-.327-.825-.616-1.664-.895-2.5-.142-.427-.284-.854-.407-1.285s-.265-.868-.379-1.309c-.189-.73-.355-1.47-.507-2.21q-.334-1.629-.54-3.277a22.149,22.149,0,0,1-.194-2.442c0-.465-.028-.929-.028-1.394,0-.024,0-.047-.019-.062v-2.286c.038-.3.019-.612.028-.915.009-.332.024-.669.028-1a17.935,17.935,0,0,1,.175-1.883c.085-.687.194-1.37.322-2.053.114-.607.232-1.219.388-1.816.189-.744.379-1.484.63-2.21.26-.754.516-1.508.8-2.243.279-.7.568-1.4.914-2.077a33.807,33.807,0,0,1,1.894-3.291c.421-.64.9-1.242,1.359-1.859.421-.569.909-1.072,1.383-1.6.322-.356.653-.7,1-1.02.3-.275.563-.593.895-.839.44-.332.833-.721,1.283-1.039.63-.446,1.25-.906,1.908-1.309s1.316-.759,1.993-1.11c.332-.171.677-.318,1.018-.474.549-.261,1.132-.441,1.7-.669.289-.114.6-.18.89-.284a14.668,14.668,0,0,1,1.723-.46,15.382,15.382,0,0,1,2.079-.37c.152-.014.3-.047.454-.076a7.826,7.826,0,0,1,1.051-.062c.729-.033,1.463-.043,2.192-.038.838.01,1.676.019,2.514.081.459.033.909.123,1.364.18a18.691,18.691,0,0,1,2.05.408,22.95,22.95,0,0,1,2.23.621c.289.1.587.176.871.289.876.341,1.766.654,2.609,1.077.492.247.99.479,1.491.707.237.109.445.27.677.394.6.318,1.188.669,1.771,1.019.36.218.7.47,1.042.706.606.413,1.2.835,1.785,1.285.464.36.9.74,1.349,1.119.71.6,1.392,1.238,2.064,1.883.464.446.9.911,1.335,1.385.4.432.791.863,1.165,1.309.772.915,1.5,1.868,2.2,2.845s1.354,2.016,1.988,3.054c.384.631.715,1.29,1.065,1.944.488.915.928,1.85,1.349,2.793.232.526.431,1.062.644,1.593.331.83.63,1.669.909,2.518.4,1.209.706,2.447.985,3.69.175.782.346,1.565.483,2.357q.227,1.345.369,2.7c.066.612.095,1.219.109,1.835.024,1,.043,2,.028,3-.014.891-.009,1.783-.076,2.674-.062.811-.175,1.617-.3,2.419-.18,1.129-.417,2.248-.7,3.358a31.3,31.3,0,0,1-1.629,4.771,29.757,29.757,0,0,1-2.145,4.069,22.415,22.415,0,0,1-1.425,2.039,24.36,24.36,0,0,1-1.965,2.286c-.237.228-.445.489-.686.707-.615.564-1.231,1.129-1.889,1.641a24.633,24.633,0,0,1-3.182,2.129c-.663.365-1.349.7-2.045,1.006a20.872,20.872,0,0,1-2.012.787c-.715.227-1.439.417-2.168.6-.62.152-1.245.261-1.87.355a13.368,13.368,0,0,1-1.69.166C491.928,683.077,491.488,683.077,491.048,683.11Z" transform="translate(-455.6 -613.275)"/><path class="f" d="M695.017,827.392c.336.3.63.636.933.963.469.517.933,1.034,1.368,1.585.469.593.928,1.191,1.359,1.808.5.712.971,1.438,1.406,2.187.336.57.653,1.148.956,1.736.459.892.857,1.813,1.25,2.733.289.679.53,1.381.777,2.073.175.494.3,1,.455,1.5.237.764.412,1.537.573,2.32.147.712.284,1.428.374,2.154.1.783.19,1.566.242,2.358.043.6.062,1.205.066,1.808,0,.522,0,1.048-.024,1.57-.028.707-.1,1.4-.175,2.107a27.234,27.234,0,0,1-.469,2.823,26.129,26.129,0,0,1-1.079,3.625,23.065,23.065,0,0,1-1.634,3.459,20.938,20.938,0,0,1-2.4,3.359,20.079,20.079,0,0,1-2.614,2.505,20.489,20.489,0,0,1-2.263,1.547,20.272,20.272,0,0,1-1.951.992,16.873,16.873,0,0,1-2.533.892,18.8,18.8,0,0,1-2.287.474c-.644.09-1.293.152-1.946.18-.535.024-1.075.024-1.61.01-.431-.01-.857-.057-1.288-.1a21.065,21.065,0,0,1-3.428-.631c-.672-.18-1.331-.394-1.989-.631q-1.094-.391-2.145-.892c-.658-.313-1.307-.65-1.932-1.025-.417-.251-.838-.5-1.245-.768a26.316,26.316,0,0,1-2.287-1.684c-.4-.332-.791-.664-1.184-1a.722.722,0,0,1-.175-.185c-.474-.5-.961-.977-1.4-1.509-.488-.593-.942-1.21-1.4-1.827-.516-.707-.985-1.447-1.435-2.2-.426-.712-.833-1.433-1.2-2.178-.312-.636-.625-1.276-.909-1.926-.208-.479-.388-.968-.578-1.457-.275-.712-.506-1.433-.729-2.163-.17-.555-.308-1.12-.455-1.68-.189-.721-.35-1.447-.474-2.183s-.246-1.49-.327-2.244c-.057-.555-.095-1.11-.118-1.665-.029-.612-.071-1.224-.057-1.841.019-.944.066-1.884.161-2.823.076-.712.152-1.423.279-2.13.109-.6.241-1.191.383-1.779.156-.631.331-1.252.53-1.869a24.189,24.189,0,0,1,.947-2.462c.251-.55.511-1.091.8-1.623.26-.484.535-.963.843-1.423.265-.4.53-.792.814-1.177.35-.484.729-.939,1.127-1.39.346-.394.7-.783,1.075-1.143a20.49,20.49,0,0,1,1.757-1.513,18.285,18.285,0,0,1,2.287-1.509c.615-.342,1.25-.641,1.894-.92a17.97,17.97,0,0,1,5.118-1.348c.469-.052.938-.071,1.406-.119a8.738,8.738,0,0,1,1.222-.047c.526.014,1.051.085,1.577.118a13.6,13.6,0,0,1,1.52.19c.606.109,1.217.223,1.813.375a22.409,22.409,0,0,1,2.7.868,24.175,24.175,0,0,1,2.377,1.063c.644.337,1.278.693,1.9,1.072a21.454,21.454,0,0,1,2.765,1.983C694.562,826.984,694.785,827.193,695.017,827.392Z" transform="translate(-649.408 -811.262)"/><path class="d" d="M662.739,797.193c-.071.024-.1-.033-.142-.071-.469-.421-.975-.8-1.477-1.174-.421-.317-.857-.62-1.3-.9-.791-.5-1.591-.985-2.424-1.411a25.664,25.664,0,0,0-2.694-1.184c-.644-.242-1.3-.45-1.96-.634a23.862,23.862,0,0,0-3.1-.62c-.464-.066-.937-.076-1.406-.118a9.066,9.066,0,0,0-1.477-.062c-.682.052-1.368.085-2.05.17a19.628,19.628,0,0,0-2.77.545,19.013,19.013,0,0,0-1.818.611,22.834,22.834,0,0,0-2.126.985,15.741,15.741,0,0,0-1.818,1.131,18.649,18.649,0,0,0-2.689,2.268,21.494,21.494,0,0,0-1.951,2.292,22.292,22.292,0,0,0-2.7,4.848c-.242.6-.469,1.2-.668,1.818-.166.521-.336,1.046-.464,1.581-.137.568-.256,1.136-.369,1.709-.137.687-.232,1.373-.3,2.069-.057.559-.118,1.112-.142,1.676-.028.649-.071,1.3-.057,1.951.019.767.057,1.539.118,2.306.062.8.18,1.6.3,2.391.1.729.26,1.449.426,2.168a36.1,36.1,0,0,0,1.008,3.527c.227.663.488,1.316.758,1.965.374.9.8,1.78,1.245,2.647.379.734.786,1.454,1.231,2.154.336.53.663,1.07,1.032,1.577s.715.994,1.1,1.473c.322.4.644.8.985,1.193.194.223.383.45.6.653a.953.953,0,0,1,.2.256,7.643,7.643,0,0,1-.739-.677c-.639-.634-1.264-1.288-1.851-1.974q-.895-1.058-1.709-2.173c-.516-.71-.994-1.444-1.453-2.187-.213-.346-.4-.705-.606-1.056-.492-.833-.895-1.719-1.312-2.59-.232-.483-.421-.985-.625-1.477-.18-.445-.346-.89-.511-1.34-.185-.5-.312-1.023-.483-1.529-.18-.54-.308-1.1-.45-1.652-.133-.526-.241-1.056-.346-1.591s-.2-1.065-.274-1.6-.152-1.075-.2-1.615-.066-1.079-.085-1.619c-.024-.578-.033-1.16-.019-1.742.014-.5.033-.99.066-1.487.024-.336.066-.677.095-1.013.043-.53.128-1.056.2-1.581.071-.493.18-.975.279-1.463.114-.583.27-1.155.431-1.724.133-.464.279-.923.435-1.378.213-.615.45-1.222.715-1.813.3-.663.616-1.311.966-1.946a22.535,22.535,0,0,1,1.562-2.429,19.975,19.975,0,0,1,4.3-4.28c.483-.351.99-.672,1.5-.985A18.521,18.521,0,0,1,637.793,791a15.752,15.752,0,0,1,2.088-.762,19.012,19.012,0,0,1,2.173-.516c.8-.142,1.614-.208,2.429-.27a13.728,13.728,0,0,1,1.468-.024c.488.014.971.076,1.453.113a18.886,18.886,0,0,1,2.476.388,21.1,21.1,0,0,1,2.225.606,27.058,27.058,0,0,1,2.7,1.06c.554.251,1.084.535,1.614.829.682.374,1.34.781,1.989,1.212a26.093,26.093,0,0,1,2.325,1.742c.644.535,1.269,1.094,1.861,1.69A.576.576,0,0,1,662.739,797.193Z" transform="translate(-617.131 -781.076)"/><path class="a" d="M946.051,1005.3a11,11,0,0,1-1.7-1.624,11.31,11.31,0,0,1-.989-1.383,8.266,8.266,0,0,1-.72-1.378c-.133-.355-.308-.7-.426-1.061a14.441,14.441,0,0,1-.412-1.6,11.829,11.829,0,0,1-.2-1.425c-.038-.511-.019-1.018-.024-1.529a10.108,10.108,0,0,1,.137-1.3,11.378,11.378,0,0,1,.459-1.984,10.019,10.019,0,0,1,.658-1.619,12.367,12.367,0,0,1,.98-1.629,11.676,11.676,0,0,1,1.515-1.728,10.01,10.01,0,0,1,1.292-1.027,10.58,10.58,0,0,1,1.255-.72,8.508,8.508,0,0,1,1.34-.521,11.9,11.9,0,0,1,1.477-.332,5.617,5.617,0,0,1,1.321-.061c.412.033.828,0,1.236.038s.838.142,1.26.213c.024,0,.047.01.047.038s-.028.042-.057.047h-.085a6.748,6.748,0,0,0-4.152,1.25,6.448,6.448,0,0,0-1.4,1.264c.024.071-.028.114-.066.166a8.654,8.654,0,0,0-1,1.534,8.819,8.819,0,0,0-.819,2.533,8.726,8.726,0,0,0-.095,1.984,8.365,8.365,0,0,0,1.6,4.474,7.934,7.934,0,0,0,1.212,1.307c.156.137.3.294.445.44a6.976,6.976,0,0,0,2.509,1.16,6.117,6.117,0,0,0,1.34.185,6.517,6.517,0,0,0,2.367-.364,7.7,7.7,0,0,0,4.848-5.09,8.614,8.614,0,0,0,.417-3.253,8.017,8.017,0,0,0-.242-1.562.394.394,0,0,1-.019-.18c.028-.009.052,0,.062.019.18.45.388.895.535,1.359.17.554.3,1.117.422,1.686a12.821,12.821,0,0,1,.175,3.068,7.229,7.229,0,0,1-.166,1.231c-.038.189-.062.388-.09.578a.156.156,0,0,1,.033.142c-.152.469-.2.97-.4,1.425a17.778,17.778,0,0,1-.876,1.88,12.965,12.965,0,0,1-1.364,1.941,11.754,11.754,0,0,1-.971.975,11.119,11.119,0,0,1-1.06.824,10.714,10.714,0,0,1-1.828,1,6.551,6.551,0,0,1-.909.327,8.893,8.893,0,0,1-2.117.393,5.105,5.105,0,0,1-.653.057c-.374-.033-.753,0-1.122-.047a7.885,7.885,0,0,1-1.179-.241c-.185-.057-.374-.09-.564-.133a7.439,7.439,0,0,1-1.3-.5,7.893,7.893,0,0,1-.956-.483A3.378,3.378,0,0,1,946.051,1005.3Z" transform="translate(-918.576 -966.751)"/><path class="d" d="M1035.9,1162.983a8.3,8.3,0,0,0,1.458.938,8.889,8.889,0,0,0,1.932.781c.346.08.706.123,1.046.223a5.739,5.739,0,0,0,1.326.142,2.434,2.434,0,0,0,.521.024c.474-.071.956-.109,1.43-.185a10.714,10.714,0,0,0,1.046-.251,8.571,8.571,0,0,0,1.193-.445,10.529,10.529,0,0,0,2.022-1.188,10.86,10.86,0,0,0,.833-.715,10.688,10.688,0,0,0,1.9-2.325,8.319,8.319,0,0,0,.8-1.558c.109-.3.26-.592.36-.9.133-.412.228-.838.336-1.26.01-.028.01-.057.038-.071a1.319,1.319,0,0,0,.222-.4,8.63,8.63,0,0,0,.734-2.628,9.658,9.658,0,0,0-.071-2.561c-.038-.208-.085-.412-.137-.615-.01-.038-.033-.09.014-.1s.061.033.076.071c.17.426.355.847.5,1.283.109.317.156.649.246.971a10.179,10.179,0,0,1,.312,1.922,13.246,13.246,0,0,1,.019,1.837,8.276,8.276,0,0,1-.327,2.06,4.1,4.1,0,0,0-.114.478,8.123,8.123,0,0,1-.663,1.837,11.506,11.506,0,0,1-1.013,1.766,11.859,11.859,0,0,1-1.383,1.652,10.215,10.215,0,0,1-1.449,1.179,9.969,9.969,0,0,1-1.411.815,9.683,9.683,0,0,1-1.856.644,8.2,8.2,0,0,1-1.557.236,3.41,3.41,0,0,1-.582.067c-.379-.043-.762,0-1.136-.047a16.084,16.084,0,0,1-2.206-.521,15.583,15.583,0,0,1-1.435-.653,10.058,10.058,0,0,1-1.392-.909,9.425,9.425,0,0,1-1.619-1.544A.074.074,0,0,1,1035.9,1162.983Z" transform="translate(-1008.425 -1124.422)"/><path class="d" d="M1054.7,1031.42a5.689,5.689,0,0,1-1.151-1,8.221,8.221,0,0,1-2.06-4.224,8.617,8.617,0,0,1,1.667-6.917,1.5,1.5,0,0,1,.275-.3c.241-.01.4-.213.606-.294a10.5,10.5,0,0,1,1.553-.578,1.3,1.3,0,0,0,.189-.071,9.535,9.535,0,0,1,1.444-.289,2.975,2.975,0,0,1,.918-.038,15.785,15.785,0,0,1,2.543.27c.024.009.057,0,.071.043-.038.047-.095.028-.137.024a6.871,6.871,0,0,0-2.2.312,6.948,6.948,0,0,0-2.339,1.255,7.978,7.978,0,0,0-1.884,2.2,8.592,8.592,0,0,0-1.061,2.978,8.871,8.871,0,0,0-.094,2,8.409,8.409,0,0,0,1.146,3.812C1054.341,1030.88,1054.53,1031.14,1054.7,1031.42Z" transform="translate(-1023.135 -998.499)"/></g></g></g></svg>